<svg data-v-0dd9719b="" version="1.0" xmlns="http://www.w3.org/2000/svg" xmlns:xlink="http://www.w3.org/1999/xlink" width="100%" height="100%" viewBox="0 0 340.000000 250.000000" preserveAspectRatio="xMidYMid meet" color-interpolation-filters="sRGB" style="margin: auto;"> <rect data-v-0dd9719b="" x="0" y="0" width="100%" height="100%" fill="#fff" fill-opacity="1" class="background"></rect> <rect data-v-0dd9719b="" x="0" y="0" width="100%" height="100%" fill="url(#watermark)" fill-opacity="1" class="watermarklayer"></rect> <g data-v-0dd9719b="" fill="#333" class="icon-text-wrapper icon-svg-group iconsvg" transform="translate(50.01000213623047,95)"><g class="iconsvg-imagesvg" transform="translate(0,0)"><g><rect fill="#333" fill-opacity="0" stroke-width="2" x="0" y="0" width="60" height="60" class="image-rect"></rect> <svg x="0" y="0" width="60" height="60" filtersec="colorsb8750987331" class="image-svg-svg primary" style="overflow: visible;"><svg xmlns="http://www.w3.org/2000/svg" viewBox="0 0 100 100"><title>资源 141</title><g fill-rule="evenodd"><path d="M0 0h44.08c8.77 18.18 12.32 28.27 10.16 35.65C51.31 45.69 11.79 64.68 0 71V0z" fill="#f2b81f"></path><path d="M46.89 0c8.74 15.71 14.17 24.11 21.73 26.3 7.09 2 16.06-1.37 31.38-9.36V0zM100 19.66v74.59C94.75 85 88.68 74.43 86.57 70.59c-7.65-14-11.72-22.41-10.65-29.23 1.18-7.47 8.53-13 24.08-21.7z" fill="#eb6621"></path><path d="M99.9 100c-5.71-10-13.63-23.42-16-27.89C75 55.64 69.68 48.19 61.48 46.58 53.52 45 12.24 67.43 0 74.06V100z" fill="#f2b81f"></path></g></svg></svg> <!----></g></g> <g transform="translate(67,1.4187488555908203)"><g data-gra="path-name" fill-rule="" class="tp-name iconsvg-namesvg" transform="translate(0,0)"><g transform="scale(1)"><g><path d="M38.02-12.15L26.01-12.15 26.01-2.79Q26.01-0.67 25.81 0.61 25.61 1.89 24.93 2.65 24.25 3.42 22.97 3.78 21.69 4.14 19.57 4.32L19.57 4.32 16.7 4.59 14.85-0.9 17.55-1.17Q18.5-1.26 19.04-1.42 19.57-1.57 19.82-1.93 20.07-2.29 20.14-2.99 20.2-3.69 20.2-4.91L20.2-4.91 20.2-12.15 6.39-12.15 6.39-17.5Q7.96-19.57 9.38-21.64 10.8-23.71 12.06-26.01L12.06-26.01 4.32-26.01 4.46-31.41 14.76-31.41Q15.25-32.58 15.75-33.82 16.25-35.05 16.74-36.36L16.74-36.36 22.99-35.01Q22.63-34.11 22.25-33.21 21.87-32.31 21.42-31.41L21.42-31.41 39.87-31.41 39.87-26.01 18.72-26.01Q15.97-20.97 13.41-17.46L13.41-17.46 20.2-17.46 20.2-23.85 26.01-23.63 26.01-17.46 38.02-17.46 38.02-12.15ZM11.83-11.43L16.06-8.01Q14.04-5.22 11.27-2.25 8.5 0.72 4.77 3.42L4.77 3.42 1.08-1.13Q4.14-3.19 6.97-5.92 9.81-8.64 11.83-11.43L11.83-11.43ZM27.9-7.42L31.36-11.43Q34.74-8.87 37.44-6.41 40.14-3.96 42.57-1.44L42.57-1.44 39.02 3.15Q36.85 0.63 33.93-2.18 31-5 27.9-7.42L27.9-7.42ZM56.61-25.61L56.61-28.17 47.66-28.17 47.66-33.12 56.61-33.12 56.61-35.91 61.97-35.68 61.97-33.12 70.92-33.12 70.92-35.91 76.23-35.68 76.23-33.12 84.96-33.12 84.96-28.17 76.23-28.17 76.23-25.61 70.92-25.61 70.92-28.17 61.97-28.17 61.97-25.61 56.61-25.61ZM83.92-16.56L78.66-16.56 78.66-19.75 53.64-19.75 53.64-16.56 48.38-16.56 48.38-24.3 63.77-24.3 63.09-27.04 68.85-27.31 69.53-24.3 83.92-24.3 83.92-16.56ZM77.63-13.05L54.63-13.05 54.63-17.64 77.63-17.64 77.63-13.05ZM80.33-5.04L85.5-3.38Q85.41-2.65 85.28-1.93 85.14-1.21 85-0.4L85-0.4Q84.78 1.03 84.4 1.89 84.02 2.75 83.32 3.24 82.62 3.73 81.54 3.94 80.46 4.14 78.84 4.18L78.84 4.18Q75.83 4.32 72.81 4.18L72.81 4.18Q71.5 4.14 70.61 3.89 69.7 3.65 69.1 3.06 68.49 2.48 68.22 1.48 67.95 0.49 67.95-1.03L67.95-1.03 67.95-6.21 63.23-6.21Q62.82-3.55 61.81-1.73 60.8 0.09 59.06 1.44 57.33 2.79 54.86 3.82 52.38 4.86 49.09 5.85L49.09 5.85 46.71 0.67Q49.41 0.04 51.3-0.63 53.19-1.3 54.45-2.11 55.71-2.92 56.41-3.92 57.11-4.91 57.42-6.21L57.42-6.21 48.24-6.21 48.24-11.12 84.19-11.12 84.19-6.21 73.22-6.21 73.22-2.52Q73.22-1.44 73.58-1.08 73.94-0.72 75.11-0.63L75.11-0.63Q76.5-0.49 77.85-0.63L77.85-0.63Q78.48-0.67 78.88-0.77 79.29-0.85 79.54-1.06 79.78-1.26 79.9-1.6 80.01-1.93 80.1-2.52L80.1-2.52Q80.19-3.1 80.23-3.76 80.28-4.41 80.33-5.04L80.33-5.04ZM93.69-18.86L93.69-18.86Q93.24-18.81 92.86-18.77 92.48-18.72 92.12-18.63L92.12-18.63 90.99-23.98Q91.58-24.25 91.91-24.68 92.25-25.11 92.48-25.38L92.48-25.38Q92.79-25.79 93.38-26.84 93.96-27.9 94.7-29.34 95.45-30.78 96.23-32.49 97.02-34.2 97.7-35.95L97.7-35.95 102.11-34.2Q101.56-32.8 100.84-31.36 100.13-29.92 99.41-28.6 98.69-27.27 97.97-26.12 97.25-24.97 96.7-24.16L96.7-24.16Q97.38-24.21 98.23-24.25 99.09-24.3 99.86-24.34L99.86-24.34Q100.62-25.7 101.27-27 101.92-28.3 102.42-29.43L102.42-29.43 106.78-27.36Q105.97-25.74 104.81-23.65 103.64-21.55 102.49-19.55 101.34-17.55 100.35-15.95 99.36-14.35 98.87-13.72L98.87-13.72 104.04-14.58 104.13-9.45Q103.91-9.4 102.83-9.22 101.75-9.04 100.31-8.82 98.87-8.59 97.36-8.32 95.85-8.05 94.77-7.83L94.77-7.83Q94.28-7.74 93.83-7.65 93.38-7.56 92.97-7.47L92.97-7.47 91.89-12.82Q92.79-13.09 93.22-13.5 93.64-13.9 94.14-14.49L94.14-14.49Q94.59-15.12 95.36-16.36 96.12-17.59 97.02-19.17L97.02-19.17Q96.12-19.08 95.22-18.99 94.32-18.9 93.69-18.86ZM124.11-8.23L124.11-8.23Q125.64-6.52 127.53-5.06 129.42-3.6 131.67-2.34L131.67-2.34 128.7 2.21Q125.87 0.22 123.59-1.82 121.32-3.87 119.61-6.3L119.61-6.3 119.61-1.62Q119.61-0.04 119.43 1.01 119.25 2.07 118.71 2.77 118.17 3.46 117.16 3.82 116.14 4.18 114.48 4.37L114.48 4.37 111.78 4.63 110.2-0.18 112.95-0.54Q114.03-0.67 114.3-1.13 114.57-1.57 114.57-2.83L114.57-2.83 114.57-5.85Q113.49-4.91 112.3-3.89 111.11-2.88 109.91-1.89 108.72-0.9 107.55 0.04 106.38 0.99 105.39 1.8L105.39 1.8 103.14-1.35Q101.97-1.08 100.17-0.61 98.37-0.14 96.62 0.34 94.86 0.81 93.44 1.19 92.03 1.57 91.67 1.71L91.67 1.71 90.77-3.33Q91.08-3.38 92.05-3.62 93.02-3.87 94.34-4.23 95.67-4.59 97.16-5 98.64-5.4 99.99-5.76 101.34-6.12 102.35-6.41 103.37-6.71 103.77-6.84L103.77-6.84 104-4.86 104.13-3.78Q105.44-4.72 106.85-5.8 108.27-6.88 109.67-7.96 111.06-9.04 112.32-10.1 113.58-11.16 114.57-12.01L114.57-12.01 114.57-16.34 108.27-16.34Q109.26-15.3 110.23-14.33 111.19-13.37 112.23-12.15L112.23-12.15 109.03-8.64Q108.09-9.86 106.97-11.07 105.84-12.29 104.94-13.32L104.94-13.32 108.09-16.34 104.36-16.34 104.36-21.06 121.72-21.06 121.72-23.13 107.33-23.13 107.33-27.77 121.72-27.77 121.72-29.88 106.47-29.88 106.47-34.6 126.81-34.6 126.81-21.06 130.32-21.06 130.32-16.34 126.27-16.34 129.38-13Q128.34-12.01 126.92-10.71 125.5-9.4 124.11-8.23ZM121.32-11.92L121.32-11.92Q122.63-13.05 123.86-14.17 125.1-15.3 126-16.34L126-16.34 119.61-16.34 119.61-15.34Q119.97-14.45 120.4-13.59 120.83-12.73 121.32-11.92ZM164.34-33.57L174.06-33.57 174.06-28.35 164.34-28.35 164.34-26.1 158.94-26.1 158.94-28.35 151.02-28.35 151.02-26.1 145.66-26.1 145.66-28.35 135.9-28.35 135.9-33.57 145.66-33.57 145.66-36.36 151.02-36.13 151.02-33.57 158.94-33.57 158.94-36.36 164.34-36.13 164.34-33.57ZM165.47-19.66L165.47-15.25 173.56-15.25 173.56-9.99 165.47-9.99 165.47-1.48Q165.47 0.22 165.13 1.3 164.79 2.38 164 3.04 163.22 3.69 161.96 4 160.69 4.32 158.85 4.46L158.85 4.46 154.8 4.77 153.13-0.77 157.05-1.03Q157.95-1.08 158.51-1.19 159.07-1.3 159.37-1.55 159.66-1.8 159.77-2.25 159.88-2.7 159.88-3.46L159.88-3.46 159.88-9.9Q155.66-5.17 149.87-1.87 144.09 1.44 136.98 4.09L136.98 4.09 134.37-1.26Q140.22-3.15 144.65-5.17 149.09-7.2 152.55-9.99L152.55-9.99 139.5-9.99 139.5-15.12Q140.04-16.16 140.67-17.37 141.3-18.59 141.8-19.48L141.8-19.48 147.15-18.63Q146.75-17.91 146.3-16.96 145.84-16.02 145.44-15.25L145.44-15.25 159.88-15.25 159.88-19.66 138.47-19.66 138.47-24.93 172.31-24.93 172.31-19.66 165.47-19.66Z" transform="translate(-1.0800000429153442, 36.36000061035156)"></path></g> <!----> <!----> <!----> <!----> <!----> <!----> <!----></g></g> <g data-gra="path-slogan" fill-rule="" class="tp-slogan iconsvg-slogansvg" fill="#333" transform="translate(2.3249969482421875,48.209999084472656)"><rect width="0"></rect> <rect x="171.3300018310547" width="0"></rect> <g transform="translate(0,0)"><g transform="scale(1)"><path d="M4.41 0L0.94 0L0.94-8.58L4.45-8.58Q7.92-8.39 8.06-4.41L8.06-4.41Q7.88-0.09 4.41 0L4.41 0ZM4.27-7.64L2.11-7.64L2.11-0.98L4.36-0.98Q6.80-1.13 6.89-4.31L6.89-4.31Q6.84-7.55 4.27-7.64L4.27-7.64ZM16.31-4.27L16.31-4.27Q16.13-7.64 13.31-7.83L13.31-7.83Q10.45-7.69 10.31-4.27L10.31-4.27Q10.45-0.94 13.31-0.80L13.31-0.80Q16.13-0.98 16.31-4.27ZM17.48-4.27L17.48-4.27Q17.20 0 13.31 0.14L13.31 0.14Q9.38 0 9.09-4.27L9.09-4.27Q9.33-8.72 13.31-8.81L13.31-8.81Q17.20-8.67 17.48-4.27ZM20.25-8.58L24.56-1.64L24.56-8.58L25.69-8.58L25.69 0L24.38 0L20.02-6.94L19.97-6.94L19.97 0L18.84 0L18.84-8.58L20.25-8.58ZM33.89-3.61L31.27-3.61L31.27-4.59L35.02-4.59L35.02 0L34.27 0L33.98-1.08Q33 0.09 31.17 0.14L31.17 0.14Q29.44 0.14 28.50-0.75L28.50-0.75Q27.09-2.06 27.14-4.36L27.14-4.36Q27.47-8.63 31.22-8.81L31.22-8.81Q34.41-8.63 34.88-6L34.88-6L33.75-6Q33.28-7.78 31.17-7.83L31.17-7.83Q28.50-7.64 28.36-4.31L28.36-4.31Q28.36-0.75 31.22-0.75L31.22-0.75Q32.25-0.75 33-1.31L33-1.31Q33.94-2.06 33.89-3.61L33.89-3.61ZM43.22-3.61L40.59-3.61L40.59-4.59L44.34-4.59L44.34 0L43.59 0L43.31-1.08Q42.33 0.09 40.50 0.14L40.50 0.14Q38.77 0.14 37.83-0.75L37.83-0.75Q36.42-2.06 36.47-4.36L36.47-4.36Q36.80-8.63 40.55-8.81L40.55-8.81Q43.73-8.63 44.20-6L44.20-6L43.08-6Q42.61-7.78 40.50-7.83L40.50-7.83Q37.83-7.64 37.69-4.31L37.69-4.31Q37.69-0.75 40.55-0.75L40.55-0.75Q41.58-0.75 42.33-1.31L42.33-1.31Q43.27-2.06 43.22-3.61L43.22-3.61ZM51.80-3.19L51.80-8.58L52.97-8.58L52.97-3.05Q52.83 0.05 49.45 0.14L49.45 0.14Q46.31 0.05 46.17-2.86L46.17-2.86L46.17-8.58L47.34-8.58L47.34-3.19Q47.39-0.84 49.50-0.80L49.50-0.80Q51.80-0.84 51.80-3.19L51.80-3.19ZM60.42 0L59.58-2.48L56.11-2.48L55.22 0L54.05 0L57.28-8.58L58.59-8.58L61.69 0L60.42 0ZM57.84-7.31L56.48-3.52L59.16-3.52L57.89-7.31L57.84-7.31ZM64.13-8.58L68.44-1.64L68.44-8.58L69.56-8.58L69.56 0L68.25 0L63.89-6.94L63.84-6.94L63.84 0L62.72 0L62.72-8.58L64.13-8.58ZM81.09-3.61L78.47-3.61L78.47-4.59L82.22-4.59L82.22 0L81.47 0L81.19-1.08Q80.20 0.09 78.38 0.14L78.38 0.14Q76.64 0.14 75.70-0.75L75.70-0.75Q74.30-2.06 74.34-4.36L74.34-4.36Q74.67-8.63 78.42-8.81L78.42-8.81Q81.61-8.63 82.08-6L82.08-6L80.95-6Q80.48-7.78 78.38-7.83L78.38-7.83Q75.70-7.64 75.56-4.31L75.56-4.31Q75.56-0.75 78.42-0.75L78.42-0.75Q79.45-0.75 80.20-1.31L80.20-1.31Q81.14-2.06 81.09-3.61L81.09-3.61ZM88.13-3.70L85.31-3.70L85.31 0L84.14 0L84.14-8.58L88.13-8.58Q90.98-8.58 90.98-6.28L90.98-6.28Q90.98-4.88 89.77-4.22L89.77-4.22Q90.80-3.94 90.80-2.58L90.80-2.58L90.89-1.03Q90.84-0.38 91.31-0.19L91.31-0.19L91.31 0L89.86 0Q89.72-0.61 89.67-2.16L89.67-2.16Q89.72-3.70 88.13-3.70L88.13-3.70ZM88.22-7.64L85.31-7.64L85.31-4.69L88.03-4.69Q89.77-4.69 89.77-6.19L89.77-6.19Q89.77-7.64 88.22-7.64L88.22-7.64ZM93.94-1.03L99.09-1.03L99.09 0L92.77 0L92.77-8.58L99-8.58L99-7.59L93.94-7.59L93.94-4.92L98.63-4.92L98.63-3.89L93.94-3.89L93.94-1.03ZM101.91-1.03L107.06-1.03L107.06 0L100.73 0L100.73-8.58L106.97-8.58L106.97-7.59L101.91-7.59L101.91-4.92L106.59-4.92L106.59-3.89L101.91-3.89L101.91-1.03ZM109.97-8.58L114.28-1.64L114.28-8.58L115.41-8.58L115.41 0L114.09 0L109.73-6.94L109.69-6.94L109.69 0L108.56 0L108.56-8.58L109.97-8.58ZM126.80-6.09L126.80-6.09L125.72-6.09Q125.63-7.73 123.56-7.83L123.56-7.83Q121.64-7.78 121.64-6.33L121.64-6.33Q121.64-5.39 122.67-5.25L122.67-5.25L125.11-4.69Q127.03-4.22 127.03-2.34L127.03-2.34Q126.98 0.05 123.66 0.14L123.66 0.14Q121.83 0.14 121.08-0.61L121.08-0.61Q120.14-1.31 120.19-2.77L120.19-2.77L121.31-2.77Q121.36-0.80 123.66-0.75L123.66-0.75Q125.91-0.80 125.95-2.20L125.95-2.20Q126.14-3.38 124.08-3.75L124.08-3.75L122.30-4.13Q120.47-4.64 120.47-6.19L120.47-6.19Q120.61-8.72 123.47-8.81L123.47-8.81Q126.70-8.81 126.80-6.09ZM132.14-7.64L129.80-7.64L129.80-4.64L132.09-4.64Q133.88-4.64 133.88-6.19L133.88-6.19Q133.88-7.59 132.14-7.64L132.14-7.64ZM132.52-3.61L129.80-3.61L129.80 0L128.63 0L128.63-8.58L132.52-8.58Q134.95-8.48 135.05-6.19L135.05-6.19Q134.91-3.70 132.52-3.61L132.52-3.61ZM140.58-3.70L137.77-3.70L137.77 0L136.59 0L136.59-8.58L140.58-8.58Q143.44-8.58 143.44-6.28L143.44-6.28Q143.44-4.88 142.22-4.22L142.22-4.22Q143.25-3.94 143.25-2.58L143.25-2.58L143.34-1.03Q143.30-0.38 143.77-0.19L143.77-0.19L143.77 0L142.31 0Q142.17-0.61 142.13-2.16L142.13-2.16Q142.17-3.70 140.58-3.70L140.58-3.70ZM140.67-7.64L137.77-7.64L137.77-4.69L140.48-4.69Q142.22-4.69 142.22-6.19L142.22-6.19Q142.22-7.64 140.67-7.64L140.67-7.64ZM151.88-4.27L151.88-4.27Q151.69-7.64 148.88-7.83L148.88-7.83Q146.02-7.69 145.88-4.27L145.88-4.27Q146.02-0.94 148.88-0.80L148.88-0.80Q151.69-0.98 151.88-4.27ZM153.05-4.27L153.05-4.27Q152.77 0 148.88 0.14L148.88 0.14Q144.94 0 144.66-4.27L144.66-4.27Q144.89-8.72 148.88-8.81L148.88-8.81Q152.77-8.67 153.05-4.27ZM160.08-3.19L160.08-8.58L161.25-8.58L161.25-3.05Q161.11 0.05 157.73 0.14L157.73 0.14Q154.59 0.05 154.45-2.86L154.45-2.86L154.45-8.58L155.63-8.58L155.63-3.19Q155.67-0.84 157.78-0.80L157.78-0.80Q160.08-0.84 160.08-3.19L160.08-3.19ZM165.23-7.59L162.33-7.59L162.33-8.58L169.27-8.58L169.27-7.59L166.36-7.59L166.36 0L165.23 0L165.23-7.59Z" transform="translate(-0.9375, 8.8125)"></path></g></g></g></g></g><defs v-gra="od"></defs></svg>